<svg width="128" height="128" viewBox="0 0 128 128" fill="none" xmlns="http://www.w3.org/2000/svg">
  <defs>
    <linearGradient id="vw_bg" x1="20" y1="18" x2="110" y2="112" gradientUnits="userSpaceOnUse">
      <stop offset="0" stop-color="#6366F1"/>
      <stop offset="1" stop-color="#8B5CF6"/>
    </linearGradient>
    <linearGradient id="vw_mark" x1="34" y1="34" x2="92" y2="92" gradientUnits="userSpaceOnUse">
      <stop offset="0" stop-color="#FFFFFF"/>
      <stop offset="1" stop-color="#E9E8FF"/>
    </linearGradient>
    <filter id="vw_glow" x="0" y="0" width="128" height="128" filterUnits="userSpaceOnUse" color-interpolation-filters="sRGB">
      <feGaussianBlur stdDeviation="6" result="blur"/>
      <feComposite in="SourceGraphic" in2="blur" operator="over"/>
    </filter>
  </defs>

  <rect x="8" y="8" width="112" height="112" rx="28" fill="url(#vw_bg)"/>
  <rect x="8" y="8" width="112" height="112" rx="28" fill="black" fill-opacity="0.05"/>

  <path
    d="M34 42L47 86L64 56L81 86L94 42"
    stroke="url(#vw_mark)"
    stroke-width="9"
    stroke-linecap="round"
    stroke-linejoin="round"
    filter="url(#vw_glow)"
  />

  <path
    d="M52 66L64 50L76 66"
    stroke="#C7D2FE"
    stroke-width="4"
    stroke-linecap="round"
    stroke-linejoin="round"
    opacity="0.9"
  />

  <circle cx="94" cy="33" r="4" fill="#FDE68A"/>
  <path d="M94 25V18M94 48V41M86 33H79M109 33H102M88.5 27.5L83.8 22.8M104.2 43.2L99.5 38.5M88.5 38.5L83.8 43.2M104.2 22.8L99.5 27.5" stroke="#FDE68A" stroke-width="1.8" stroke-linecap="round" opacity="0.85"/>
</svg>
